# xmcd CD database file
#
# Track frame offsets:
#	150
#	18206
#	37716
#	51192
#	66030
#	84992
#	104192
#	121896
#	138668
#	154170
#	169822
#	184653
#	206555
#	221557
#	240609
#	263856
#	286200
#	303512
#
# Disc length: 4299 seconds
#
# Revision: 0
# Processed by: cddbd v1.5.1PL0 Copyright (c) Steve Scherf et al.
# Submitted via: CDex 1.51
#
DISCID=fd10c912
DTITLE=Fagner - Fagner-Coletanea
DYEAR=2004
DGENRE=MPB
TTITLE0=Eu sei que vou te amar-Fagner
TTITLE1=Minha namorada-Fagner
TTITLE2=Ronda-Fagner
TTITLE3=Gente humilde-Fagner
TTITLE4=Borbulhas de amor-Fagner
TTITLE5=Cabecinha no ombro-Fagner
TTITLE6=Meu primeiro amor-Fagner
TTITLE7=Lembranca de um beijo-Fagner
TTITLE8=Caboclo sonhador-Fagner
TTITLE9=S Joao do Gonzagao-Fagner
TTITLE10=Voce endoideceu meu coracao-Fagner
TTITLE11=Romance no deserto-Fagner
TTITLE12=Voce endoideceu meu coracao-Fagner
TTITLE13=Deslizes-Fagner
TTITLE14=Retrovisor-Fagner
TTITLE15=Amor escondido-Fagner
TTITLE16=Nao me deixes mais-Fagner
TTITLE17=Respeita Januario-Fagner
EXTD=YEAR: 2004
EXTT0=
EXTT1=
EXTT2=
EXTT3=
EXTT4=
EXTT5=
EXTT6=
EXTT7=
EXTT8=
EXTT9=
EXTT10=
EXTT11=
EXTT12=
EXTT13=
EXTT14=
EXTT15=
EXTT16=
EXTT17=
PLAYORDER=
